<svg width="50" height="68" viewBox="0 0 50 68" fill="none" xmlns="http://www.w3.org/2000/svg">
<g filter="url(#filter0_d_23_1723)">
<rect x="5" y="2" width="40" height="60" rx="5" fill="#77CC66"/>
<rect x="6" y="3" width="38" height="58" rx="4" stroke="white" stroke-width="2"/>
</g>
<path d="M25.0039 21.58C20.4439 21.58 17.0239 24.88 17.0239 32.5C17.0239 40.09 20.4439 43.39 25.0039 43.39C29.5339 43.39 32.9839 40.09 32.9839 32.5C32.9839 24.88 29.5339 21.58 25.0039 21.58ZM25.0039 40.27C21.6739 40.27 20.5339 36.76 20.5339 32.5C20.5339 28.21 21.6739 24.7 25.0039 24.7C28.3339 24.7 29.4739 28.21 29.4739 32.5C29.4739 36.76 28.3339 40.27 25.0039 40.27Z" fill="white"/>
<rect x="10" y="7" width="4" height="4" rx="2" fill="white"/>
<rect x="36" y="53" width="4" height="4" rx="2" fill="white"/>
<defs>
<filter id="filter0_d_23_1723" x="0" y="-0.5" width="50" height="70" filterUnits="userSpaceOnUse" color-interpolation-filters="sRGB">
<feFlood flood-opacity="0" result="BackgroundImageFix"/>
<feColorMatrix in="SourceAlpha" type="matrix" values="0 0 0 0 0 0 0 0 0 0 0 0 0 0 0 0 0 0 127 0" result="hardAlpha"/>
<feOffset dy="2.5"/>
<feGaussianBlur stdDeviation="2.5"/>
<feColorMatrix type="matrix" values="0 0 0 0 0.0196078 0 0 0 0 0 0 0 0 0 0.219608 0 0 0 0.2 0"/>
<feBlend mode="normal" in2="BackgroundImageFix" result="effect1_dropShadow_23_1723"/>
<feBlend mode="normal" in="SourceGraphic" in2="effect1_dropShadow_23_1723" result="shape"/>
</filter>
</defs>
</svg>
