<svg width="68" height="68" viewBox="0 0 68 68" fill="none" xmlns="http://www.w3.org/2000/svg">
<g filter="url(#filter0_d_23_1758)">
<rect x="14" y="2" width="40" height="60" rx="4" fill="#FFE5E5"/>
<rect x="15" y="3" width="38" height="58" rx="3" stroke="white" stroke-width="2"/>
</g>
<path d="M21.9963 41H32.2443V38.552H28.6683V24.2H25.4283L21.9723 26.504V29.312L25.4043 27.056H25.8843V38.552H21.9963V41ZM34.2502 29.048H37.0342C37.2262 27.2 38.4022 26.36 40.0342 26.36C41.7622 26.36 42.9622 27.296 42.9622 29.144C42.9622 30.944 41.5702 32.336 40.3222 33.32L34.3222 38.096V41H46.2982V38.552H38.4982V38.072L42.3862 34.904C44.3062 33.368 45.7702 31.376 45.7702 29.12C45.7702 25.688 43.3702 23.864 40.1062 23.864C36.7942 23.864 34.4422 25.616 34.2502 29.048Z" fill="#050038"/>
<rect x="19" y="7" width="4" height="4" rx="2" fill="#FF6575"/>
<rect x="45" y="53" width="4" height="4" rx="2" fill="#FF6575"/>
<defs>
<filter id="filter0_d_23_1758" x="10" y="0" width="48" height="68" filterUnits="userSpaceOnUse" color-interpolation-filters="sRGB">
<feFlood flood-opacity="0" result="BackgroundImageFix"/>
<feColorMatrix in="SourceAlpha" type="matrix" values="0 0 0 0 0 0 0 0 0 0 0 0 0 0 0 0 0 0 127 0" result="hardAlpha"/>
<feOffset dy="2"/>
<feGaussianBlur stdDeviation="2"/>
<feColorMatrix type="matrix" values="0 0 0 0 0.0196078 0 0 0 0 0 0 0 0 0 0.219608 0 0 0 0.2 0"/>
<feBlend mode="normal" in2="BackgroundImageFix" result="effect1_dropShadow_23_1758"/>
<feBlend mode="normal" in="SourceGraphic" in2="effect1_dropShadow_23_1758" result="shape"/>
</filter>
</defs>
</svg>
