<svg width="68" height="68" viewBox="0 0 68 68" fill="none" xmlns="http://www.w3.org/2000/svg">
<g clip-path="url(#clip0_23_1728)">
<g filter="url(#filter0_d_23_1728)">
<rect x="14" y="2" width="40" height="60" rx="5" fill="#FEF9E2"/>
<rect x="15" y="3" width="38" height="58" rx="4" stroke="white" stroke-width="2"/>
</g>
<path d="M26.5491 28.06H30.0291C30.2691 25.75 31.7391 24.7 33.7791 24.7C35.9391 24.7 37.4391 25.87 37.4391 28.18C37.4391 30.43 35.6991 32.17 34.1391 33.4L26.6391 39.37V43H41.6091V39.94H31.8591V39.34L36.7191 35.38C39.1191 33.46 40.9491 30.97 40.9491 28.15C40.9491 23.86 37.9491 21.58 33.8691 21.58C29.7291 21.58 26.7891 23.77 26.5491 28.06Z" fill="#050038"/>
<rect x="19" y="7" width="4" height="4" rx="2" fill="#FF6575"/>
<rect x="45" y="53" width="4" height="4" rx="2" fill="#FF6575"/>
</g>
<defs>
<filter id="filter0_d_23_1728" x="9" y="-0.5" width="50" height="70" filterUnits="userSpaceOnUse" color-interpolation-filters="sRGB">
<feFlood flood-opacity="0" result="BackgroundImageFix"/>
<feColorMatrix in="SourceAlpha" type="matrix" values="0 0 0 0 0 0 0 0 0 0 0 0 0 0 0 0 0 0 127 0" result="hardAlpha"/>
<feOffset dy="2.5"/>
<feGaussianBlur stdDeviation="2.5"/>
<feColorMatrix type="matrix" values="0 0 0 0 0.0196078 0 0 0 0 0 0 0 0 0 0.219608 0 0 0 0.2 0"/>
<feBlend mode="normal" in2="BackgroundImageFix" result="effect1_dropShadow_23_1728"/>
<feBlend mode="normal" in="SourceGraphic" in2="effect1_dropShadow_23_1728" result="shape"/>
</filter>
<clipPath id="clip0_23_1728">
<rect width="68" height="68" fill="white"/>
</clipPath>
</defs>
</svg>
