<svg width="68" height="68" viewBox="0 0 68 68" fill="none" xmlns="http://www.w3.org/2000/svg">
<g filter="url(#filter0_d_23_1752)">
<rect x="14" y="2" width="40" height="60" rx="4" fill="#F4B5BB"/>
<rect x="15" y="3" width="38" height="58" rx="3" stroke="white" stroke-width="2"/>
</g>
<path d="M20.4104 29.048H23.1944C23.3864 27.2 24.5624 26.36 26.1944 26.36C27.9224 26.36 29.1224 27.296 29.1224 29.144C29.1224 30.944 27.7304 32.336 26.4824 33.32L20.4824 38.096V41H32.4584V38.552H24.6584V38.072L28.5464 34.904C30.4664 33.368 31.9304 31.376 31.9304 29.12C31.9304 25.688 29.5304 23.864 26.2664 23.864C22.9544 23.864 20.6024 25.616 20.4104 29.048ZM41.1398 23.864C37.4918 23.864 34.7558 26.504 34.7558 32.6C34.7558 38.672 37.4918 41.312 41.1398 41.312C44.7638 41.312 47.5238 38.672 47.5238 32.6C47.5238 26.504 44.7638 23.864 41.1398 23.864ZM41.1398 38.816C38.4758 38.816 37.5638 36.008 37.5638 32.6C37.5638 29.168 38.4758 26.36 41.1398 26.36C43.8038 26.36 44.7158 29.168 44.7158 32.6C44.7158 36.008 43.8038 38.816 41.1398 38.816Z" fill="#050038"/>
<rect x="19" y="7" width="4" height="4" rx="2" fill="#FF6575"/>
<rect x="45" y="53" width="4" height="4" rx="2" fill="#FF6575"/>
<defs>
<filter id="filter0_d_23_1752" x="10" y="0" width="48" height="68" filterUnits="userSpaceOnUse" color-interpolation-filters="sRGB">
<feFlood flood-opacity="0" result="BackgroundImageFix"/>
<feColorMatrix in="SourceAlpha" type="matrix" values="0 0 0 0 0 0 0 0 0 0 0 0 0 0 0 0 0 0 127 0" result="hardAlpha"/>
<feOffset dy="2"/>
<feGaussianBlur stdDeviation="2"/>
<feColorMatrix type="matrix" values="0 0 0 0 0.0196078 0 0 0 0 0 0 0 0 0 0.219608 0 0 0 0.2 0"/>
<feBlend mode="normal" in2="BackgroundImageFix" result="effect1_dropShadow_23_1752"/>
<feBlend mode="normal" in="SourceGraphic" in2="effect1_dropShadow_23_1752" result="shape"/>
</filter>
</defs>
</svg>
