<svg width="68" height="68" viewBox="0 0 68 68" fill="none" xmlns="http://www.w3.org/2000/svg">
<g clip-path="url(#clip0_23_1734)">
<g filter="url(#filter0_d_23_1734)">
<rect x="14" y="2" width="40" height="60" rx="5" fill="#FEF9E2"/>
<rect x="15" y="3" width="38" height="58" rx="4" stroke="white" stroke-width="2"/>
</g>
<path d="M34.8347 28.78C32.8847 28.78 31.7747 29.41 30.8747 30.16H30.2747L30.6647 24.97H40.4147V22H27.9047L26.9747 33.37H30.3347C31.2047 32.14 32.4647 31.6 34.0847 31.6C36.5147 31.6 38.1347 33.28 38.1347 35.92C38.1347 38.59 36.5147 40.27 34.0247 40.27C31.7447 40.27 30.2447 39.1 29.9747 36.85H26.4947C26.7347 40.57 29.3747 43.39 34.1447 43.39C38.5247 43.39 41.6447 40.39 41.6447 35.83C41.6447 31.75 38.8547 28.78 34.8347 28.78Z" fill="#050038"/>
<rect x="19" y="7" width="4" height="4" rx="2" fill="#FF6575"/>
<rect x="45" y="53" width="4" height="4" rx="2" fill="#FF6575"/>
</g>
<defs>
<filter id="filter0_d_23_1734" x="9" y="-0.5" width="50" height="70" filterUnits="userSpaceOnUse" color-interpolation-filters="sRGB">
<feFlood flood-opacity="0" result="BackgroundImageFix"/>
<feColorMatrix in="SourceAlpha" type="matrix" values="0 0 0 0 0 0 0 0 0 0 0 0 0 0 0 0 0 0 127 0" result="hardAlpha"/>
<feOffset dy="2.5"/>
<feGaussianBlur stdDeviation="2.5"/>
<feColorMatrix type="matrix" values="0 0 0 0 0.0196078 0 0 0 0 0 0 0 0 0 0.219608 0 0 0 0.2 0"/>
<feBlend mode="normal" in2="BackgroundImageFix" result="effect1_dropShadow_23_1734"/>
<feBlend mode="normal" in="SourceGraphic" in2="effect1_dropShadow_23_1734" result="shape"/>
</filter>
<clipPath id="clip0_23_1734">
<rect width="68" height="68" fill="white"/>
</clipPath>
</defs>
</svg>
