<svg width="68" height="68" viewBox="0 0 68 68" fill="none" xmlns="http://www.w3.org/2000/svg">
<g filter="url(#filter0_d_23_1788)">
<rect x="14" y="2" width="40" height="60" rx="4" fill="#050038"/>
<rect x="15" y="3" width="38" height="58" rx="3" stroke="white" stroke-width="2"/>
</g>
<path d="M39.1562 37.8906C38.2083 37.8906 37.3333 37.6354 36.5312 37.125C35.7396 36.6146 35.0104 35.8229 34.3438 34.75C33.7292 35.6771 33.0208 36.4167 32.2188 36.9688C31.4167 37.5208 30.5833 37.7969 29.7188 37.7969C28.7812 37.7969 27.9479 37.5885 27.2188 37.1719C26.5 36.7448 25.9323 36.151 25.5156 35.3906C25.099 34.6198 24.8906 33.724 24.8906 32.7031C24.8906 31.7552 25.0885 30.901 25.4844 30.1406C25.8906 29.3698 26.4531 28.7604 27.1719 28.3125C27.901 27.8542 28.75 27.625 29.7188 27.625C30.6042 27.625 31.4479 27.875 32.25 28.375C33.0521 28.8646 33.7708 29.651 34.4062 30.7344C35.0104 29.7969 35.7083 29.0573 36.5 28.5156C37.3021 27.974 38.1875 27.7031 39.1562 27.7031C40.1042 27.7031 40.9323 27.9167 41.6406 28.3438C42.3594 28.7604 42.9167 29.349 43.3125 30.1094C43.7188 30.8698 43.9219 31.7604 43.9219 32.7812C43.9219 33.6979 43.7188 34.5417 43.3125 35.3125C42.9167 36.0833 42.3594 36.7083 41.6406 37.1875C40.9323 37.6562 40.1042 37.8906 39.1562 37.8906ZM29.875 35.2656C30.4688 35.2656 31.0156 35.0573 31.5156 34.6406C32.026 34.224 32.5208 33.5781 33 32.7031C32.5312 31.8177 32.0469 31.1667 31.5469 30.75C31.0469 30.3333 30.4792 30.125 29.8438 30.125C29.1146 30.125 28.5365 30.3802 28.1094 30.8906C27.6927 31.3906 27.4844 32 27.4844 32.7188C27.4844 33.4062 27.6823 34.0052 28.0781 34.5156C28.4844 35.0156 29.0833 35.2656 29.875 35.2656ZM38.9844 35.3594C39.6927 35.3594 40.2604 35.1094 40.6875 34.6094C41.125 34.099 41.3438 33.4792 41.3438 32.75C41.3438 32.0208 41.1198 31.4167 40.6719 30.9375C40.2344 30.4583 39.6615 30.2188 38.9531 30.2188C38.3698 30.2188 37.8229 30.4271 37.3125 30.8438C36.8021 31.25 36.2969 31.8906 35.7969 32.7656C36.2656 33.6094 36.7552 34.2552 37.2656 34.7031C37.7865 35.1406 38.3594 35.3594 38.9844 35.3594Z" fill="#FF6575"/>
<rect x="19" y="7" width="4" height="4" rx="2" fill="#FF6575"/>
<rect x="45" y="53" width="4" height="4" rx="2" fill="#FF6575"/>
<defs>
<filter id="filter0_d_23_1788" x="10" y="0" width="48" height="68" filterUnits="userSpaceOnUse" color-interpolation-filters="sRGB">
<feFlood flood-opacity="0" result="BackgroundImageFix"/>
<feColorMatrix in="SourceAlpha" type="matrix" values="0 0 0 0 0 0 0 0 0 0 0 0 0 0 0 0 0 0 127 0" result="hardAlpha"/>
<feOffset dy="2"/>
<feGaussianBlur stdDeviation="2"/>
<feColorMatrix type="matrix" values="0 0 0 0 0.0196078 0 0 0 0 0 0 0 0 0 0.219608 0 0 0 0.2 0"/>
<feBlend mode="normal" in2="BackgroundImageFix" result="effect1_dropShadow_23_1788"/>
<feBlend mode="normal" in="SourceGraphic" in2="effect1_dropShadow_23_1788" result="shape"/>
</filter>
</defs>
</svg>
