<svg width="68" height="68" viewBox="0 0 68 68" fill="none" xmlns="http://www.w3.org/2000/svg">
<g filter="url(#filter0_d_23_1800)">
<rect x="14" y="2" width="40" height="60" rx="4" fill="#050038"/>
<rect x="15" y="3" width="38" height="58" rx="3" stroke="white" stroke-width="2"/>
</g>
<path d="M33.7679 21.19C29.3279 21.19 26.8679 23.92 26.7779 27.73H30.2279C30.3179 25.21 31.6379 24.19 33.8279 24.19C36.0179 24.19 37.1879 25.63 37.1879 27.16C37.1879 28.93 36.1979 29.59 34.7879 30.67C32.5379 32.44 31.6379 33.4 31.6379 35.92V36.94H35.0879V35.92C35.0879 34.3 35.5979 33.82 37.0079 32.8C39.0479 31.27 40.6679 30.1 40.6679 27.16C40.6679 23.71 38.2079 21.19 33.7679 21.19ZM35.2979 43V38.98H31.3679V43H35.2979Z" fill="#FF6575"/>
<rect x="19" y="7" width="4" height="4" rx="2" fill="#FF6575"/>
<rect x="45" y="53" width="4" height="4" rx="2" fill="#FF6575"/>
<defs>
<filter id="filter0_d_23_1800" x="10" y="0" width="48" height="68" filterUnits="userSpaceOnUse" color-interpolation-filters="sRGB">
<feFlood flood-opacity="0" result="BackgroundImageFix"/>
<feColorMatrix in="SourceAlpha" type="matrix" values="0 0 0 0 0 0 0 0 0 0 0 0 0 0 0 0 0 0 127 0" result="hardAlpha"/>
<feOffset dy="2"/>
<feGaussianBlur stdDeviation="2"/>
<feColorMatrix type="matrix" values="0 0 0 0 0.0196078 0 0 0 0 0 0 0 0 0 0.219608 0 0 0 0.2 0"/>
<feBlend mode="normal" in2="BackgroundImageFix" result="effect1_dropShadow_23_1800"/>
<feBlend mode="normal" in="SourceGraphic" in2="effect1_dropShadow_23_1800" result="shape"/>
</filter>
</defs>
</svg>
