<svg width="51" height="56" viewBox="0 0 51 56" fill="none" xmlns="http://www.w3.org/2000/svg">
<g filter="url(#filter0_d_3_2597)">
<path d="M16.9453 10.1743C15.4669 15.4917 12.8341 20.5973 9.37781 24.8631C8.17086 25.2653 7.30655 28.2417 7.30655 29.6471C7.10168 35.8386 7.368 48.2218 10.0721 48.2218C13.47 48.2218 17.4819 49.6523 20.8457 49.2115C26.5681 48.4617 42.0352 49.4199 41.5248 40.7513C41.4794 39.9821 40.3778 39.4038 40.0247 38.786C39.8009 38.395 41.5634 37.254 41.9914 36.7044C43.8312 34.341 43.9752 30.9215 42.1249 28.6104C41.1521 27.3955 40.3319 28.1535 41.8249 26.6618C42.7149 25.7725 43.9251 24.3792 43.9251 23.0647C43.9251 21.0761 43.4429 17.6686 40.7747 17.6686C38.2238 17.6686 35.5214 18.1218 32.9573 18.2682C30.9133 18.3849 27.0337 19.4167 25.0296 19.7504C24.9195 19.7687 25.007 17.4333 24.9629 17.0358C24.7047 14.7145 25.373 0.606687 20.0289 2.97972C19.3898 3.26354 18.7488 4.71349 18.6788 5.37794C18.5021 7.05516 17.3886 8.57987 16.9453 10.1743Z" fill="#77CC66"/>
<path fill-rule="evenodd" clip-rule="evenodd" d="M40.0245 38.7861C40.1606 39.0242 40.4081 39.2564 40.6633 39.496C41.0702 39.8781 41.4969 40.2788 41.5246 40.7513C41.9441 47.8774 31.5668 48.4979 24.6813 48.9097C23.1906 48.9989 21.8639 49.0782 20.8455 49.2115C18.9268 49.463 16.7973 49.1055 14.6911 48.7521C13.1048 48.4857 11.5317 48.2219 10.0719 48.2219C7.36785 48.2219 7.10153 35.8387 7.3064 29.6472C7.3064 28.2417 8.17071 25.2653 9.37766 24.8632C12.834 20.5974 15.4668 15.4918 16.9451 10.1744C17.1273 9.51921 17.4226 8.87586 17.7196 8.22884C18.1453 7.30119 18.5746 6.36604 18.6787 5.37799C18.7487 4.71355 19.3897 3.26359 20.0288 2.97978C24.5145 0.987862 24.764 10.6079 24.8812 15.1224C24.9035 15.9861 24.9211 16.663 24.9628 17.0359C24.9677 17.0817 24.9712 17.1533 24.9732 17.2441C24.9734 17.2531 24.9737 17.2622 24.9739 17.2715C24.9781 17.4916 24.9759 17.8122 24.9737 18.1503C24.9704 18.6343 24.967 19.1541 24.9818 19.4657C24.9905 19.6443 25.0051 19.7545 25.0294 19.7505C25.6789 19.6423 26.5253 19.4608 27.4426 19.261C27.4463 19.2601 27.45 19.2593 27.4538 19.2585C27.5502 19.2375 27.6473 19.2163 27.7452 19.1949C29.5855 18.7932 31.6478 18.343 32.9571 18.2682C33.9845 18.2096 35.0341 18.1017 36.0872 17.9934C37.6624 17.8315 39.2457 17.6687 40.7746 17.6687C43.4428 17.6687 43.9249 21.0762 43.9249 23.0647C43.9249 24.0103 43.2988 24.9965 42.6161 25.8065C42.6132 25.81 42.6104 25.8134 42.6075 25.8169C42.3438 26.1291 42.0717 26.4148 41.8247 26.6619C40.8447 27.6411 40.8615 27.6508 41.2637 27.8857C41.4743 28.0086 41.7905 28.1932 42.1248 28.6105C43.975 30.9216 43.831 34.341 41.9912 36.7044C41.8349 36.9054 41.5001 37.1854 41.1492 37.4788C40.5402 37.988 39.8825 38.5381 40.0245 38.7861ZM44.4057 27.5266C44.6995 27.1864 45.0003 26.8043 45.2734 26.3925C45.7933 25.6088 46.4028 24.4385 46.4028 23.0647C46.4028 21.9427 46.2762 20.2158 45.6409 18.6759C44.9758 17.0643 43.4968 15.1908 40.7746 15.1908C39.3664 15.1908 37.9481 15.3155 36.6241 15.448C36.3466 15.4758 36.0745 15.5037 35.8067 15.5312C34.76 15.6388 33.7815 15.7393 32.8159 15.7944C31.5727 15.8654 29.9064 16.1969 28.4623 16.5044C28.1035 16.5808 27.7558 16.6563 27.4218 16.7291C27.394 16.4503 27.3819 15.9691 27.3643 15.2678C27.3517 14.7708 27.3363 14.1632 27.3105 13.4388C27.2526 11.8008 27.1413 9.78013 26.8529 7.87638C26.5788 6.06634 26.0944 3.97544 25.0708 2.46096C24.5296 1.66026 23.7184 0.843352 22.5421 0.454553C21.3302 0.0538784 20.1105 0.232318 19.0232 0.715147C18.3454 1.01613 17.8896 1.50437 17.6337 1.81978C17.3476 2.17248 17.1173 2.55403 16.9396 2.89741C16.6138 3.52704 16.2938 4.36459 16.2144 5.11836C16.171 5.53028 16.0004 6.01733 15.6526 6.78964C15.6051 6.89509 15.5519 7.01044 15.4949 7.13404C15.1985 7.77685 14.7989 8.64341 14.5578 9.51064C13.2144 14.3428 10.8509 18.9963 7.75958 22.919C7.18159 23.2981 6.77698 23.788 6.51618 24.1599C6.10798 24.742 5.79995 25.3991 5.57181 26.0022C5.13447 27.1584 4.83712 28.5322 4.8287 29.6009C4.72559 32.7559 4.74034 37.4961 5.13224 41.4976C5.32663 43.4827 5.62677 45.433 6.11001 46.9445C6.34722 47.6866 6.68218 48.4991 7.19324 49.1739C7.71253 49.8592 8.66078 50.6997 10.0719 50.6997C11.3082 50.6997 12.6493 50.9237 14.2525 51.1916C14.518 51.2357 14.7907 51.2813 15.0712 51.3274C16.9027 51.6272 19.0802 51.9419 21.1674 51.6686C22.0944 51.5469 23.2828 51.4761 24.7222 51.3898C25.3443 51.3527 26.0136 51.3128 26.7287 51.2647C28.9982 51.112 31.5923 50.8821 34.0258 50.3771C36.4172 49.8808 38.9219 49.0678 40.8343 47.5811C42.8837 45.988 44.1782 43.6638 43.9983 40.6056C43.9524 39.8303 43.6464 39.2264 43.3798 38.8282L43.3793 38.8275C43.4145 38.795 43.4497 38.7623 43.4846 38.7291C43.6088 38.6107 43.7835 38.436 43.9465 38.2263C46.296 35.2083 46.6742 30.7967 44.4057 27.5266Z" fill="white"/>
<path fill-rule="evenodd" clip-rule="evenodd" d="M39.4899 28.688C39.0364 28.851 38.5396 29.0297 38.0908 29.1508C35.5993 29.8241 32.9906 30.7391 30.511 31.6411C29.9964 31.8282 29.4277 31.5628 29.2406 31.0481C29.0535 30.5337 29.3189 29.9651 29.8336 29.778C32.3181 28.8745 34.9947 27.9342 37.5737 27.2372C37.9491 27.1356 38.3062 27.0067 38.7073 26.862C38.9383 26.7788 39.1838 26.69 39.4557 26.5984C40.1371 26.3689 40.9302 26.1437 41.7474 26.1437C42.2951 26.1437 42.7386 26.5875 42.7386 27.1348C42.7386 27.6822 42.2951 28.126 41.7474 28.126C41.2677 28.126 40.7283 28.2615 40.0888 28.4768C39.9049 28.5388 39.7022 28.6119 39.4899 28.688Z" fill="#050038"/>
<path fill-rule="evenodd" clip-rule="evenodd" d="M41.5512 37.3093C41.8547 37.7647 41.7316 38.3802 41.2761 38.6838C40.7989 39.0019 40.284 39.1734 39.8856 39.3015C39.8474 39.3136 39.8105 39.3255 39.7745 39.3372C39.3967 39.4581 39.1258 39.5448 38.8793 39.6774C38.4766 39.8944 38.0494 39.9861 37.768 40.0466C37.7489 40.0506 37.7308 40.0545 37.7132 40.0582C37.3861 40.1291 37.228 40.1737 37.1044 40.2461C36.4539 40.6274 35.6769 40.8888 34.9818 41.0984C34.7412 41.1713 34.5133 41.237 34.2962 41.2997C33.8423 41.4307 33.4369 41.5477 33.0669 41.6835C32.553 41.8718 31.9836 41.6081 31.7953 41.094C31.6067 40.5801 31.8706 40.0107 32.3845 39.8223C32.8221 39.662 33.3385 39.5126 33.8276 39.3711C34.0283 39.3131 34.2246 39.2564 34.4089 39.2009C35.0914 38.995 35.6709 38.7886 36.1018 38.5361C36.5268 38.287 36.9763 38.1897 37.2714 38.1257C37.2786 38.124 37.286 38.1225 37.293 38.121C37.6356 38.0467 37.8017 38.0063 37.9397 37.932C38.3587 37.7065 38.8099 37.5633 39.1593 37.4525C39.2007 37.4394 39.2408 37.4265 39.2792 37.4141C39.6794 37.2855 39.9534 37.1832 40.1767 37.0345C40.6321 36.7307 41.2474 36.8538 41.5512 37.3093Z" fill="#050038"/>
<path fill-rule="evenodd" clip-rule="evenodd" d="M20.336 25.3483C20.8572 25.515 21.1447 26.0731 20.9779 26.5944C20.8379 27.032 20.678 27.7154 20.6801 28.3205C20.6824 28.9853 20.8637 29.1588 20.9519 29.2029C21.4413 29.4474 21.6397 30.0429 21.3949 30.5325C21.1501 31.0221 20.5549 31.2206 20.0653 30.9758C18.9128 30.3994 18.7007 29.162 18.6978 28.3272C18.6947 27.4327 18.9178 26.5278 19.0899 25.9903C19.2567 25.469 19.8146 25.1815 20.336 25.3483Z" fill="#050038"/>
<path fill-rule="evenodd" clip-rule="evenodd" d="M21.9323 37.3249C22.4797 37.3249 22.9235 37.7687 22.9235 38.316C22.9235 38.4853 22.9066 38.69 22.8928 38.8585C22.8923 38.8634 22.8918 38.8684 22.8915 38.8733L22.8908 38.8822C22.8752 39.0696 22.8603 39.25 22.8536 39.4266C22.8477 39.5825 22.8492 39.7116 22.8581 39.8129C23.0315 39.9021 23.2887 40.0783 23.4518 40.4041C23.6966 40.8938 23.4981 41.4892 23.0085 41.7338C22.6123 41.932 22.1469 41.8398 21.854 41.5383C21.7918 41.5108 21.7066 41.4694 21.6206 41.4139C21.4653 41.314 21.3101 41.1733 21.184 40.9753C20.9932 40.6752 20.9251 40.3442 20.8953 40.1014C20.8639 39.8434 20.8639 39.5795 20.8728 39.3506C20.8812 39.1295 20.8993 38.9107 20.9139 38.7336C20.9147 38.7259 20.9152 38.718 20.9159 38.7103C20.9323 38.5103 20.9412 38.3906 20.9412 38.316C20.9412 37.7687 21.385 37.3249 21.9323 37.3249ZM22.6527 39.723C22.6527 39.723 22.6536 39.7235 22.6554 39.7245C22.6534 39.7235 22.6527 39.723 22.6527 39.723Z" fill="#050038"/>
</g>
<defs>
<filter id="filter0_d_3_2597" x="0.774414" y="-1.76642" width="49.6284" height="59.5396" filterUnits="userSpaceOnUse" color-interpolation-filters="sRGB">
<feFlood flood-opacity="0" result="BackgroundImageFix"/>
<feColorMatrix in="SourceAlpha" type="matrix" values="0 0 0 0 0 0 0 0 0 0 0 0 0 0 0 0 0 0 127 0" result="hardAlpha"/>
<feOffset dy="2"/>
<feGaussianBlur stdDeviation="2"/>
<feColorMatrix type="matrix" values="0 0 0 0 0.0196078 0 0 0 0 0 0 0 0 0 0.219608 0 0 0 0.2 0"/>
<feBlend mode="normal" in2="BackgroundImageFix" result="effect1_dropShadow_3_2597"/>
<feBlend mode="normal" in="SourceGraphic" in2="effect1_dropShadow_3_2597" result="shape"/>
</filter>
</defs>
</svg>
